#!OML:ASF F:\VICON\USERDATA\INSTALL\Justin_Nancy\Justin_Nancy.ASF
:FULLY-SPECIFIED
:DEGREES
17
root -8.34262 17.5728 -29.4327 0.238783 -0.282795 2.48029
lowerback 6.69712 -3.89827 -6.08927
upperback -1.84014 -5.52441 4.64528
thorax -4.64956 -2.50317 8.90129
lowerneck -12.0301 0.123157 -13.1485
upperneck 18.5455 1.99139 4.15753
head 7.5463 0.419973 3.73884
rclavicle 7.20097e-014 -6.04305e-014
rhumerus -38.4066 -11.6874 -73.0694
rradius 25.5809
rwrist 10.0898
rhand -10.662 13.3436
rfingers 7.12502
rthumb 15.3461 -16.0669
lclavicle 7.20097e-014 -6.04305e-014
lhumerus -34.1703 21.6224 80.8218
lradius 28.7835
lwrist -9.81284
lhand -16.7285 23.9087
lfingers 7.12502
lthumb 9.49731 53.6747
rfemur -20.2235 0.689453 21.8653
rtibia 21.4305
rfoot -1.43189 -4.05869
rtoes 6.75972
lfemur 3.73454 -2.65075 -25.1533
ltibia 40.4617
lfoot 13.6897 -7.21894
ltoes 1.6525
18
root -8.37587 17.6062 -29.2544 0.10275 0.711872 1.95228
lowerback 6.78983 -4.48992 -5.98243
upperback -2.0081 -6.2935 5.10953
thorax -4.69011 -2.87917 9.41868
lowerneck -11.4836 0.306436 -13.465
upperneck 18.0005 2.26125 3.91493
head 7.25019 0.524437 3.71247
rclavicle -3.94836e-014 3.02153e-014
rhumerus -38.3159 -10.1723 -73.299
rradius 25.7783
rwrist 9.63937
rhand -10.7093 13.4534
rfingers 7.12502
rthumb 15.3005 -15.9606
lclavicle -3.94836e-014 3.02153e-014
lhumerus -35.0746 22.5562 80.673
lradius 28.7717
lwrist -9.70107
lhand -16.8825 23.8248
lfingers 7.12502
lthumb 9.34871 53.5975
rfemur -18.9182 0.520415 22.5081
rtibia 20.7892
rfoot -1.60012 -5.05449
rtoes 7.52243
lfemur 2.5711 -3.273 -24.1828
ltibia 42.5647
lfoot 15.7674 -8.72697
ltoes 3.13825
19
root -8.40252 17.6366 -29.0859 0.0363743 1.32591 1.49515
lowerback 6.68171 -4.50115 -5.39622
upperback -1.87569 -6.25262 5.05013
thorax -4.56271 -2.8872 8.99305
lowerneck -11.6585 0.133088 -13.4327
upperneck 17.9519 1.97626 4.27571
head 7.283 0.426604 3.80413
rclavicle 2.53202e-014 -1.43125e-014
rhumerus -38.1735 -10.6637 -73.4074
rradius 25.9892
rwrist 9.30422
rhand -10.3901 13.4596
rfingers 7.12502
rthumb 15.6079 -15.9307
lclavicle 2.53202e-014 -1.43125e-014
lhumerus -34.9462 21.7851 80.9702
lradius 28.7323
lwrist -9.628
lhand -17.6875 23.5028
lfingers 7.12502
lthumb 8.57188 53.3088
rfemur -17.749 0.442693 23.1009
rtibia 20.0679
rfoot -1.73662 -5.47356
rtoes 6.89536
lfemur 1.24776 -3.65204 -23.3913
ltibia 44.7636
lfoot 16.8641 -10.0935
ltoes 0.522381
20
root -8.41814 17.6628 -28.9369 0.101575 1.003 1.12723
lowerback 6.53079 -4.21684 -4.85408
upperback -1.7443 -5.82244 4.94225
thorax -4.48245 -2.69587 8.51153
lowerneck -11.841 -0.0432671 -13.1958
upperneck 17.9612 1.6827 4.4519
head 7.34237 0.319152 3.80121
rclavicle -4.01794e-014 1.11319e-014
rhumerus -37.7159 -11.1306 -73.6176
rradius 25.7446
rwrist 9.15272
rhand -10.6933 13.3476
rfingers 7.12502
rthumb 15.316 -16.0653
lclavicle -4.01794e-014 1.11319e-014
lhumerus -34.8681 21.0397 81.17
lradius 28.7219
lwrist -9.23886
lhand -18.148 22.7545
lfingers 7.12502
lthumb 8.12747 52.5782
rfemur -16.9152 0.766062 23.5981
rtibia 19.3646
rfoot -1.66993 -5.28599
rtoes 7.70307
lfemur -0.298489 -3.30331 -22.862
ltibia 47.0144
lfoot 15.4031 -10.5946
ltoes -9.65934
21
root -8.42417 17.6786 -28.8109 0.380994 -0.790236 0.694375
lowerback 6.58523 -3.70652 -4.59582
upperback -1.91521 -5.105 5.18559
thorax -4.82178 -2.32106 8.59327
lowerneck -11.6074 0.119469 -13.3022
upperneck 17.9459 1.89876 4.41282
head 7.27616 0.411146 3.82125
rclavicle -1.86982e-014 1.43125e-014
rhumerus -37.423 -10.0187 -74.0182
rradius 25.7119
rwrist 8.95493
rhand -11.3249 13.0806
rfingers 7.12502
rthumb 14.7075 -16.3777
lclavicle -1.86982e-014 1.43125e-014
lhumerus -35.5181 21.2239 81.1867
lradius 28.7219
lwrist -9.04322
lhand -17.8299 23.0358
lfingers 7.12502
lthumb 8.43448 52.8474
rfemur -16.6121 1.3477 24.248
rtibia 18.762
rfoot -1.31418 -3.90417
rtoes 9.30278
lfemur -2.09888 -1.6966 -22.3952
ltibia 49.2517
lfoot 15.2333 -10.4002
ltoes -10.0493
